{
	"patcher" : 	{
		"fileversion" : 1,
		"appversion" : 		{
			"major" : 6,
			"minor" : 1,
			"revision" : 9,
			"architecture" : "x86"
		}
,
		"rect" : [ 0.0, 44.0, 430.0, 646.0 ],
		"bglocked" : 0,
		"openinpresentation" : 0,
		"default_fontsize" : 12.0,
		"default_fontface" : 0,
		"default_fontname" : "Helvetica Neue",
		"gridonopen" : 0,
		"gridsize" : [ 15.0, 15.0 ],
		"gridsnaponopen" : 0,
		"statusbarvisible" : 2,
		"toolbarvisible" : 1,
		"boxanimatetime" : 200,
		"imprint" : 0,
		"enablehscroll" : 1,
		"enablevscroll" : 1,
		"devicewidth" : 0.0,
		"description" : "",
		"digest" : "",
		"tags" : "",
		"boxes" : [ 			{
				"box" : 				{
					"bgcolor" : [ 0.960784, 0.960784, 0.960784, 1.0 ],
					"fontface" : 1,
					"fontname" : "Helvetica Neue",
					"fontsize" : 12.0,
					"frgb" : 0.0,
					"id" : "obj-34",
					"maxclass" : "comment",
					"numinlets" : 1,
					"numoutlets" : 0,
					"patching_rect" : [ 15.0, 435.0, 405.0, 21.0 ],
					"text" : "How to use in your own projects",
					"textcolor" : [ 0.2, 0.2, 0.2, 1.0 ]
				}

			}
, 			{
				"box" : 				{
					"fontname" : "Helvetica Neue",
					"fontsize" : 12.0,
					"frgb" : 0.0,
					"id" : "obj-30",
					"linecount" : 2,
					"maxclass" : "comment",
					"numinlets" : 1,
					"numoutlets" : 0,
					"patching_rect" : [ 15.0, 585.0, 405.0, 34.0 ],
					"text" : "For example, if you type the following into a new object box, you will create an input module called my-input-module with 4 channels:",
					"textcolor" : [ 0.203182, 0.203182, 0.203182, 1.0 ]
				}

			}
, 			{
				"box" : 				{
					"fontface" : 1,
					"fontname" : "Courier New",
					"fontsize" : 12.0,
					"frgb" : 0.0,
					"id" : "obj-27",
					"maxclass" : "comment",
					"numinlets" : 1,
					"numoutlets" : 0,
					"patching_rect" : [ 15.0, 615.0, 364.0, 20.0 ],
					"text" : "bpatcher cs.2click-inputs @args my-input-module 4",
					"textcolor" : [ 0.203182, 0.203182, 0.203182, 1.0 ]
				}

			}
, 			{
				"box" : 				{
					"fontname" : "Helvetica Neue",
					"fontsize" : 12.0,
					"frgb" : 0.0,
					"id" : "obj-24",
					"linecount" : 7,
					"maxclass" : "comment",
					"numinlets" : 1,
					"numoutlets" : 0,
					"patching_rect" : [ 15.5, 465.0, 407.0, 104.0 ],
					"text" : "Using these modules in your patches is as simple as creating a [bpatcher] with the patch cs.2click-outputs or cs.2click-inputs as its first argument.\n\nYou also need to provide a unique name for your [bpatcher] and a number to set how many channels it is. You can do this in the inspector or when creating the [bpatcher]. The unique name will be displayed in a slot to show where it’s being routed to or from.",
					"textcolor" : [ 0.203182, 0.203182, 0.203182, 1.0 ]
				}

			}
, 			{
				"box" : 				{
					"fontname" : "Helvetica Neue",
					"fontsize" : 12.0,
					"frgb" : 0.0,
					"id" : "obj-22",
					"linecount" : 2,
					"maxclass" : "comment",
					"numinlets" : 1,
					"numoutlets" : 0,
					"patching_rect" : [ 210.0, 225.0, 210.0, 34.0 ],
					"text" : "To clear a routing, simply click one of the red ✖ buttons.",
					"textcolor" : [ 0.2, 0.2, 0.2, 1.0 ]
				}

			}
, 			{
				"box" : 				{
					"bgcolor" : [ 1.0, 0.788235, 0.470588, 1.0 ],
					"border" : 0,
					"bordercolor" : [ 0.0, 0.0, 0.0, 1.0 ],
					"fontface" : 1,
					"fontname" : "Arial",
					"fontsize" : 13.0,
					"hint" : "",
					"id" : "obj-20",
					"ignoreclick" : 1,
					"maxclass" : "textbutton",
					"numinlets" : 1,
					"numoutlets" : 3,
					"outlettype" : [ "", "", "int" ],
					"parameter_enable" : 0,
					"patching_rect" : [ 180.0, 225.0, 20.0, 20.0 ],
					"rounded" : 60.0,
					"text" : "3",
					"textcolor" : [ 0.34902, 0.34902, 0.34902, 1.0 ],
					"textovercolor" : [ 0.2, 0.2, 0.2, 1.0 ]
				}

			}
, 			{
				"box" : 				{
					"fontsize" : 12.0,
					"id" : "obj-19",
					"maxclass" : "live.text",
					"numinlets" : 1,
					"numoutlets" : 2,
					"outlettype" : [ "", "" ],
					"parameter_enable" : 1,
					"patching_rect" : [ 210.0, 15.0, 180.0, 20.0 ],
					"saved_attribute_attributes" : 					{
						"valueof" : 						{
							"parameter_longname" : "live.text[1]",
							"parameter_shortname" : "live.text",
							"parameter_type" : 2,
							"parameter_mmax" : 1.0,
							"parameter_enum" : [ "val1", "val2" ]
						}

					}
,
					"text" : "Turn on the DSP",
					"texton" : "Turn off the DSP",
					"transition" : 1,
					"varname" : "live.text[1]"
				}

			}
, 			{
				"box" : 				{
					"fontname" : "Helvetica Neue",
					"fontsize" : 12.0,
					"frgb" : 0.0,
					"id" : "obj-17",
					"linecount" : 3,
					"maxclass" : "comment",
					"numinlets" : 1,
					"numoutlets" : 0,
					"patching_rect" : [ 210.0, 300.0, 210.0, 48.0 ],
					"text" : "A global dictionary named cs.2click-routing-pairs stores all the routings you set up.",
					"textcolor" : [ 0.2, 0.2, 0.2, 1.0 ]
				}

			}
, 			{
				"box" : 				{
					"bgcolor" : [ 1.0, 0.788235, 0.470588, 1.0 ],
					"border" : 0,
					"bordercolor" : [ 0.0, 0.0, 0.0, 1.0 ],
					"fontface" : 1,
					"fontname" : "Arial",
					"fontsize" : 13.0,
					"hint" : "",
					"id" : "obj-18",
					"ignoreclick" : 1,
					"maxclass" : "textbutton",
					"numinlets" : 1,
					"numoutlets" : 3,
					"outlettype" : [ "", "", "int" ],
					"parameter_enable" : 0,
					"patching_rect" : [ 180.0, 270.0, 20.0, 20.0 ],
					"rounded" : 60.0,
					"text" : "4",
					"textcolor" : [ 0.34902, 0.34902, 0.34902, 1.0 ],
					"textovercolor" : [ 0.2, 0.2, 0.2, 1.0 ]
				}

			}
, 			{
				"box" : 				{
					"fontname" : "Helvetica Neue",
					"fontsize" : 12.0,
					"frgb" : 0.0,
					"id" : "obj-16",
					"linecount" : 7,
					"maxclass" : "comment",
					"numinlets" : 1,
					"numoutlets" : 0,
					"patching_rect" : [ 210.0, 105.0, 210.0, 104.0 ],
					"text" : "Try routing an output slot to an input slot: click on any of the six outputs and then on the input you want to send to.\n\nThis also works if you click the input first and then the output.",
					"textcolor" : [ 0.2, 0.2, 0.2, 1.0 ]
				}

			}
, 			{
				"box" : 				{
					"bgcolor" : [ 1.0, 0.788235, 0.470588, 1.0 ],
					"border" : 0,
					"bordercolor" : [ 0.0, 0.0, 0.0, 1.0 ],
					"fontface" : 1,
					"fontname" : "Arial",
					"fontsize" : 13.0,
					"hint" : "",
					"id" : "obj-15",
					"ignoreclick" : 1,
					"maxclass" : "textbutton",
					"numinlets" : 1,
					"numoutlets" : 3,
					"outlettype" : [ "", "", "int" ],
					"parameter_enable" : 0,
					"patching_rect" : [ 180.0, 105.0, 20.0, 20.0 ],
					"rounded" : 60.0,
					"text" : "2",
					"textcolor" : [ 0.34902, 0.34902, 0.34902, 1.0 ],
					"textovercolor" : [ 0.2, 0.2, 0.2, 1.0 ]
				}

			}
, 			{
				"box" : 				{
					"fontname" : "Helvetica Neue",
					"fontsize" : 12.0,
					"frgb" : 0.0,
					"id" : "obj-14",
					"linecount" : 3,
					"maxclass" : "comment",
					"numinlets" : 1,
					"numoutlets" : 0,
					"patching_rect" : [ 210.0, 45.0, 210.0, 48.0 ],
					"text" : "The cycle bank patch is sending a sine wave of a different frequency from each outlet.",
					"textcolor" : [ 0.2, 0.2, 0.2, 1.0 ]
				}

			}
, 			{
				"box" : 				{
					"bgcolor" : [ 1.0, 0.788235, 0.470588, 1.0 ],
					"border" : 0,
					"bordercolor" : [ 0.0, 0.0, 0.0, 1.0 ],
					"fontface" : 1,
					"fontname" : "Arial",
					"fontsize" : 13.0,
					"hint" : "",
					"id" : "obj-25",
					"ignoreclick" : 1,
					"maxclass" : "textbutton",
					"numinlets" : 1,
					"numoutlets" : 3,
					"outlettype" : [ "", "", "int" ],
					"parameter_enable" : 0,
					"patching_rect" : [ 180.0, 15.0, 20.0, 20.0 ],
					"rounded" : 60.0,
					"text" : "1",
					"textcolor" : [ 0.34902, 0.34902, 0.34902, 1.0 ],
					"textovercolor" : [ 0.2, 0.2, 0.2, 1.0 ]
				}

			}
, 			{
				"box" : 				{
					"fontname" : "Helvetica Neue",
					"fontsize" : 12.0,
					"hidden" : 1,
					"id" : "obj-12",
					"maxclass" : "newobj",
					"numinlets" : 1,
					"numoutlets" : 1,
					"outlettype" : [ "edit" ],
					"patching_rect" : [ 165.0, 328.0, 38.0, 20.0 ],
					"text" : "t edit"
				}

			}
, 			{
				"box" : 				{
					"fontsize" : 12.0,
					"id" : "obj-9",
					"maxclass" : "live.text",
					"mode" : 0,
					"numinlets" : 1,
					"numoutlets" : 2,
					"outlettype" : [ "", "" ],
					"parameter_enable" : 1,
					"patching_rect" : [ 210.0, 270.0, 180.0, 20.0 ],
					"saved_attribute_attributes" : 					{
						"valueof" : 						{
							"parameter_longname" : "live.text",
							"parameter_shortname" : "live.text",
							"parameter_type" : 2,
							"parameter_mmax" : 1.0,
							"parameter_enum" : [ "val1", "val2" ]
						}

					}
,
					"text" : "Look inside the dictionary",
					"transition" : 1,
					"varname" : "live.text"
				}

			}
, 			{
				"box" : 				{
					"id" : "obj-32",
					"maxclass" : "live.meter~",
					"numinlets" : 1,
					"numoutlets" : 1,
					"outlettype" : [ "list" ],
					"patching_rect" : [ 116.0, 360.0, 19.0, 45.0 ]
				}

			}
, 			{
				"box" : 				{
					"id" : "obj-31",
					"maxclass" : "live.meter~",
					"numinlets" : 1,
					"numoutlets" : 1,
					"outlettype" : [ "list" ],
					"patching_rect" : [ 15.5, 360.0, 19.0, 45.0 ]
				}

			}
, 			{
				"box" : 				{
					"fontname" : "Helvetica Neue",
					"fontsize" : 12.0,
					"id" : "obj-28",
					"maxclass" : "newobj",
					"numinlets" : 0,
					"numoutlets" : 6,
					"outlettype" : [ "signal", "signal", "signal", "signal", "signal", "signal" ],
					"patcher" : 					{
						"fileversion" : 1,
						"appversion" : 						{
							"major" : 6,
							"minor" : 1,
							"revision" : 9,
							"architecture" : "x86"
						}
,
						"rect" : [ 0.0, 0.0, 640.0, 480.0 ],
						"bglocked" : 0,
						"openinpresentation" : 0,
						"default_fontsize" : 12.0,
						"default_fontface" : 0,
						"default_fontname" : "Helvetica Neue",
						"gridonopen" : 0,
						"gridsize" : [ 15.0, 15.0 ],
						"gridsnaponopen" : 0,
						"statusbarvisible" : 2,
						"toolbarvisible" : 1,
						"boxanimatetime" : 200,
						"imprint" : 0,
						"enablehscroll" : 1,
						"enablevscroll" : 1,
						"devicewidth" : 0.0,
						"description" : "",
						"digest" : "",
						"tags" : "",
						"boxes" : [ 							{
								"box" : 								{
									"fontname" : "Helvetica Neue",
									"fontsize" : 12.0,
									"id" : "obj-21",
									"maxclass" : "newobj",
									"numinlets" : 2,
									"numoutlets" : 1,
									"outlettype" : [ "signal" ],
									"patching_rect" : [ 166.0, 130.0, 69.0, 20.0 ],
									"text" : "cycle~ 500"
								}

							}
, 							{
								"box" : 								{
									"fontname" : "Helvetica Neue",
									"fontsize" : 12.0,
									"id" : "obj-20",
									"maxclass" : "newobj",
									"numinlets" : 2,
									"numoutlets" : 1,
									"outlettype" : [ "signal" ],
									"patching_rect" : [ 142.800003, 100.0, 69.0, 20.0 ],
									"text" : "cycle~ 600"
								}

							}
, 							{
								"box" : 								{
									"fontname" : "Helvetica Neue",
									"fontsize" : 12.0,
									"id" : "obj-18",
									"maxclass" : "newobj",
									"numinlets" : 2,
									"numoutlets" : 1,
									"outlettype" : [ "signal" ],
									"patching_rect" : [ 119.599998, 190.0, 69.0, 20.0 ],
									"text" : "cycle~ 700"
								}

							}
, 							{
								"box" : 								{
									"fontname" : "Helvetica Neue",
									"fontsize" : 12.0,
									"id" : "obj-16",
									"maxclass" : "newobj",
									"numinlets" : 2,
									"numoutlets" : 1,
									"outlettype" : [ "signal" ],
									"patching_rect" : [ 96.400002, 160.0, 69.0, 20.0 ],
									"text" : "cycle~ 800"
								}

							}
, 							{
								"box" : 								{
									"fontname" : "Helvetica Neue",
									"fontsize" : 12.0,
									"id" : "obj-14",
									"maxclass" : "newobj",
									"numinlets" : 2,
									"numoutlets" : 1,
									"outlettype" : [ "signal" ],
									"patching_rect" : [ 73.199997, 130.0, 69.0, 20.0 ],
									"text" : "cycle~ 900"
								}

							}
, 							{
								"box" : 								{
									"fontname" : "Helvetica Neue",
									"fontsize" : 12.0,
									"id" : "obj-1",
									"maxclass" : "newobj",
									"numinlets" : 2,
									"numoutlets" : 1,
									"outlettype" : [ "signal" ],
									"patching_rect" : [ 50.0, 100.0, 76.0, 20.0 ],
									"text" : "cycle~ 1000"
								}

							}
, 							{
								"box" : 								{
									"comment" : "",
									"id" : "obj-22",
									"maxclass" : "outlet",
									"numinlets" : 1,
									"numoutlets" : 0,
									"patching_rect" : [ 50.0, 270.0, 25.0, 25.0 ]
								}

							}
, 							{
								"box" : 								{
									"comment" : "",
									"id" : "obj-23",
									"maxclass" : "outlet",
									"numinlets" : 1,
									"numoutlets" : 0,
									"patching_rect" : [ 73.199997, 270.0, 25.0, 25.0 ]
								}

							}
, 							{
								"box" : 								{
									"comment" : "",
									"id" : "obj-24",
									"maxclass" : "outlet",
									"numinlets" : 1,
									"numoutlets" : 0,
									"patching_rect" : [ 96.400002, 270.0, 25.0, 25.0 ]
								}

							}
, 							{
								"box" : 								{
									"comment" : "",
									"id" : "obj-25",
									"maxclass" : "outlet",
									"numinlets" : 1,
									"numoutlets" : 0,
									"patching_rect" : [ 119.599998, 270.0, 25.0, 25.0 ]
								}

							}
, 							{
								"box" : 								{
									"comment" : "",
									"id" : "obj-26",
									"maxclass" : "outlet",
									"numinlets" : 1,
									"numoutlets" : 0,
									"patching_rect" : [ 142.800003, 270.0, 25.0, 25.0 ]
								}

							}
, 							{
								"box" : 								{
									"comment" : "",
									"id" : "obj-27",
									"maxclass" : "outlet",
									"numinlets" : 1,
									"numoutlets" : 0,
									"patching_rect" : [ 166.0, 270.0, 25.0, 25.0 ]
								}

							}
 ],
						"lines" : [ 							{
								"patchline" : 								{
									"destination" : [ "obj-22", 0 ],
									"disabled" : 0,
									"hidden" : 0,
									"source" : [ "obj-1", 0 ]
								}

							}
, 							{
								"patchline" : 								{
									"destination" : [ "obj-23", 0 ],
									"disabled" : 0,
									"hidden" : 0,
									"source" : [ "obj-14", 0 ]
								}

							}
, 							{
								"patchline" : 								{
									"destination" : [ "obj-24", 0 ],
									"disabled" : 0,
									"hidden" : 0,
									"source" : [ "obj-16", 0 ]
								}

							}
, 							{
								"patchline" : 								{
									"destination" : [ "obj-25", 0 ],
									"disabled" : 0,
									"hidden" : 0,
									"source" : [ "obj-18", 0 ]
								}

							}
, 							{
								"patchline" : 								{
									"destination" : [ "obj-26", 0 ],
									"disabled" : 0,
									"hidden" : 0,
									"source" : [ "obj-20", 0 ]
								}

							}
, 							{
								"patchline" : 								{
									"destination" : [ "obj-27", 0 ],
									"disabled" : 0,
									"hidden" : 0,
									"source" : [ "obj-21", 0 ]
								}

							}
 ]
					}
,
					"patching_rect" : [ 15.0, 15.0, 135.0, 20.0 ],
					"saved_object_attributes" : 					{
						"default_fontface" : 0,
						"default_fontname" : "Helvetica Neue",
						"default_fontsize" : 12.0,
						"description" : "",
						"digest" : "",
						"fontface" : 0,
						"fontname" : "Helvetica Neue",
						"fontsize" : 12.0,
						"globalpatchername" : "",
						"tags" : ""
					}
,
					"text" : "p cycle-bank"
				}

			}
, 			{
				"box" : 				{
					"id" : "obj-7",
					"maxclass" : "ezdac~",
					"numinlets" : 2,
					"numoutlets" : 0,
					"patching_rect" : [ 52.5, 360.0, 45.0, 45.0 ]
				}

			}
, 			{
				"box" : 				{
					"channels" : 6,
					"id" : "obj-4",
					"maxclass" : "live.gain~",
					"numinlets" : 6,
					"numoutlets" : 9,
					"outlettype" : [ "signal", "signal", "signal", "signal", "signal", "signal", "", "float", "list" ],
					"parameter_enable" : 1,
					"patching_rect" : [ 15.0, 45.0, 135.0, 105.0 ],
					"presentation_rect" : [ 0.0, 0.0, 31.0, 50.0 ],
					"saved_attribute_attributes" : 					{
						"valueof" : 						{
							"parameter_longname" : "live.gain~",
							"parameter_shortname" : "live.gain~",
							"parameter_type" : 0,
							"parameter_mmin" : -70.0,
							"parameter_mmax" : 6.0,
							"parameter_initial_enable" : 1,
							"parameter_initial" : [ -24 ],
							"parameter_unitstyle" : 4
						}

					}
,
					"showname" : 0,
					"varname" : "live.gain~"
				}

			}
, 			{
				"box" : 				{
					"fontname" : "Helvetica Neue",
					"fontsize" : 14.0,
					"id" : "obj-3",
					"maxclass" : "newobj",
					"numinlets" : 2,
					"numoutlets" : 4,
					"outlettype" : [ "dictionary", "", "", "" ],
					"patching_rect" : [ 210.0, 360.0, 178.0, 23.0 ],
					"saved_object_attributes" : 					{
						"embed" : 0,
						"parameter_enable" : 0
					}
,
					"text" : "dict cs.2click-routing-pairs"
				}

			}
, 			{
				"box" : 				{
					"args" : [ "to-ezdac", 2 ],
					"id" : "obj-6",
					"maxclass" : "bpatcher",
					"name" : "cs.2click-inputs.maxpat",
					"numinlets" : 0,
					"numoutlets" : 2,
					"outlettype" : [ "signal", "signal" ],
					"patching_rect" : [ 15.0, 300.0, 120.0, 45.0 ]
				}

			}
, 			{
				"box" : 				{
					"args" : [ "cyclebank", 6 ],
					"id" : "obj-5",
					"maxclass" : "bpatcher",
					"name" : "cs.2click-outputs.maxpat",
					"numinlets" : 6,
					"numoutlets" : 0,
					"patching_rect" : [ 15.0, 165.0, 120.0, 105.0 ]
				}

			}
 ],
		"lines" : [ 			{
				"patchline" : 				{
					"destination" : [ "obj-3", 0 ],
					"disabled" : 0,
					"hidden" : 1,
					"source" : [ "obj-12", 0 ]
				}

			}
, 			{
				"patchline" : 				{
					"destination" : [ "obj-7", 0 ],
					"disabled" : 0,
					"hidden" : 1,
					"midpoints" : [ 219.5, 40.0, 195.0, 40.0, 195.0, 40.0, 156.0, 40.0, 156.0, 350.0, 62.0, 350.0 ],
					"source" : [ "obj-19", 0 ]
				}

			}
, 			{
				"patchline" : 				{
					"destination" : [ "obj-4", 5 ],
					"disabled" : 0,
					"hidden" : 0,
					"source" : [ "obj-28", 5 ]
				}

			}
, 			{
				"patchline" : 				{
					"destination" : [ "obj-4", 4 ],
					"disabled" : 0,
					"hidden" : 0,
					"source" : [ "obj-28", 4 ]
				}

			}
, 			{
				"patchline" : 				{
					"destination" : [ "obj-4", 3 ],
					"disabled" : 0,
					"hidden" : 0,
					"source" : [ "obj-28", 3 ]
				}

			}
, 			{
				"patchline" : 				{
					"destination" : [ "obj-4", 2 ],
					"disabled" : 0,
					"hidden" : 0,
					"source" : [ "obj-28", 2 ]
				}

			}
, 			{
				"patchline" : 				{
					"destination" : [ "obj-4", 1 ],
					"disabled" : 0,
					"hidden" : 0,
					"source" : [ "obj-28", 1 ]
				}

			}
, 			{
				"patchline" : 				{
					"destination" : [ "obj-4", 0 ],
					"disabled" : 0,
					"hidden" : 0,
					"source" : [ "obj-28", 0 ]
				}

			}
, 			{
				"patchline" : 				{
					"destination" : [ "obj-5", 5 ],
					"disabled" : 0,
					"hidden" : 0,
					"source" : [ "obj-4", 5 ]
				}

			}
, 			{
				"patchline" : 				{
					"destination" : [ "obj-5", 4 ],
					"disabled" : 0,
					"hidden" : 0,
					"source" : [ "obj-4", 4 ]
				}

			}
, 			{
				"patchline" : 				{
					"destination" : [ "obj-5", 3 ],
					"disabled" : 0,
					"hidden" : 0,
					"source" : [ "obj-4", 3 ]
				}

			}
, 			{
				"patchline" : 				{
					"destination" : [ "obj-5", 2 ],
					"disabled" : 0,
					"hidden" : 0,
					"source" : [ "obj-4", 2 ]
				}

			}
, 			{
				"patchline" : 				{
					"destination" : [ "obj-5", 1 ],
					"disabled" : 0,
					"hidden" : 0,
					"source" : [ "obj-4", 1 ]
				}

			}
, 			{
				"patchline" : 				{
					"destination" : [ "obj-5", 0 ],
					"disabled" : 0,
					"hidden" : 0,
					"source" : [ "obj-4", 0 ]
				}

			}
, 			{
				"patchline" : 				{
					"destination" : [ "obj-31", 0 ],
					"disabled" : 0,
					"hidden" : 0,
					"source" : [ "obj-6", 0 ]
				}

			}
, 			{
				"patchline" : 				{
					"destination" : [ "obj-32", 0 ],
					"disabled" : 0,
					"hidden" : 0,
					"source" : [ "obj-6", 1 ]
				}

			}
, 			{
				"patchline" : 				{
					"destination" : [ "obj-7", 1 ],
					"disabled" : 0,
					"hidden" : 0,
					"source" : [ "obj-6", 1 ]
				}

			}
, 			{
				"patchline" : 				{
					"destination" : [ "obj-7", 0 ],
					"disabled" : 0,
					"hidden" : 0,
					"source" : [ "obj-6", 0 ]
				}

			}
, 			{
				"patchline" : 				{
					"destination" : [ "obj-12", 0 ],
					"disabled" : 0,
					"hidden" : 1,
					"midpoints" : [ 219.5, 291.0, 195.0, 291.0, 195.0, 315.0, 174.5, 315.0 ],
					"source" : [ "obj-9", 0 ]
				}

			}
 ],
		"parameters" : 		{
			"obj-19" : [ "live.text[1]", "live.text", 0 ],
			"obj-9" : [ "live.text", "live.text", 0 ],
			"obj-4" : [ "live.gain~", "live.gain~", 0 ]
		}
,
		"dependency_cache" : [ 			{
				"name" : "cs.2click-outputs.maxpat",
				"bootpath" : "/Users/chris/Desktop/desktop/Max/music264-spring-2015/students/chris-swithinbank/cs.2click/lib",
				"patcherrelativepath" : "./lib",
				"type" : "JSON",
				"implicit" : 1
			}
, 			{
				"name" : "cs.2click.js",
				"bootpath" : "/Users/chris/Desktop/desktop/Max/music264-spring-2015/students/chris-swithinbank/cs.2click/lib",
				"patcherrelativepath" : "./lib",
				"type" : "TEXT",
				"implicit" : 1
			}
, 			{
				"name" : "cs.2click-send~.maxpat",
				"bootpath" : "/Users/chris/Desktop/desktop/Max/music264-spring-2015/students/chris-swithinbank/cs.2click/lib",
				"patcherrelativepath" : "./lib",
				"type" : "JSON",
				"implicit" : 1
			}
, 			{
				"name" : "cs.2click-inputs.maxpat",
				"bootpath" : "/Users/chris/Desktop/desktop/Max/music264-spring-2015/students/chris-swithinbank/cs.2click/lib",
				"patcherrelativepath" : "./lib",
				"type" : "JSON",
				"implicit" : 1
			}
, 			{
				"name" : "cs.2click-receive~.maxpat",
				"bootpath" : "/Users/chris/Desktop/desktop/Max/music264-spring-2015/students/chris-swithinbank/cs.2click/lib",
				"patcherrelativepath" : "./lib",
				"type" : "JSON",
				"implicit" : 1
			}
 ]
	}

}
